<mxfile host="65bd71144e">
    <diagram id="IvUjVm4ccQzjB-OKepJw" name="Page-1">
        <mxGraphModel dx="1052" dy="722" grid="1" gridSize="10" guides="1" tooltips="1" connect="1" arrows="1" fold="1" page="1" pageScale="1" pageWidth="827" pageHeight="1169" math="0" shadow="0">
            <root>
                <mxCell id="0"/>
                <mxCell id="1" parent="0"/>
                <mxCell id="2" value="Car" style="swimlane;fontStyle=1;align=center;verticalAlign=top;childLayout=stackLayout;horizontal=1;startSize=26;horizontalStack=0;resizeParent=1;resizeParentMax=0;resizeLast=0;collapsible=1;marginBottom=0;" parent="1" vertex="1">
                    <mxGeometry x="130" y="50" width="260" height="590" as="geometry"/>
                </mxCell>
                <mxCell id="3" value="-make: String ;&#10;-model: String ;&#10;-color:  Color ;&#10;-bodyType: TypeCar ;&#10;-numberWheels: int ;&#10;-fuelType: TypeFuel ;&#10;-gaerboxType:  TypeGearBox ;&#10;-engineCapacity: double ;" style="text;strokeColor=none;fillColor=none;align=left;verticalAlign=top;spacingLeft=4;spacingRight=4;overflow=hidden;rotatable=0;points=[[0,0.5],[1,0.5]];portConstraint=eastwest;" parent="2" vertex="1">
                    <mxGeometry y="26" width="260" height="134" as="geometry"/>
                </mxCell>
                <mxCell id="4" value="" style="line;strokeWidth=1;fillColor=none;align=left;verticalAlign=middle;spacingTop=-1;spacingLeft=3;spacingRight=3;rotatable=0;labelPosition=right;points=[];portConstraint=eastwest;" parent="2" vertex="1">
                    <mxGeometry y="160" width="260" height="8" as="geometry"/>
                </mxCell>
                <mxCell id="5" value="+movement(): void&#10;+ maintenance(): void&#10;+ gearShifting():boolean&#10;+switchHeadlights(): boolean&#10;+ swithWipers(): boolean&#10;+ getMake():String&#10;+ setMake(make:String)&#10;+ getModel():String&#10;+setModel(model:String)&#10;+getColor():&#10;+setColor(color:Color)&#10;+getbodyType():String&#10;+setbodyType(bodyType:TypeCar)&#10;+getNumberWheels():int&#10;+setNumberWheels(numberWheels:int)&#10;+getFuelType():TypeFuel&#10;+setFuelType(fuelType:TypeFuel)&#10;+getGaerboxType():TypeGearBox&#10;+setGaerboxType(gaerboxType:TypeGearBox)&#10;+getEngineCapacity():double&#10;+setEngineCapacity(engineCapacity:double)&#10;&#10;&#10;" style="text;strokeColor=none;fillColor=none;align=left;verticalAlign=top;spacingLeft=4;spacingRight=4;overflow=hidden;rotatable=0;points=[[0,0.5],[1,0.5]];portConstraint=eastwest;" parent="2" vertex="1">
                    <mxGeometry y="168" width="260" height="422" as="geometry"/>
                </mxCell>
                <mxCell id="6" value="PickUp" style="swimlane;fontStyle=1;align=center;verticalAlign=top;childLayout=stackLayout;horizontal=1;startSize=26;horizontalStack=0;resizeParent=1;resizeParentMax=0;resizeLast=0;collapsible=1;marginBottom=0;" vertex="1" parent="1">
                    <mxGeometry x="130" y="710" width="230" height="170" as="geometry"/>
                </mxCell>
                <mxCell id="7" value="- loadCapacity:int&#10;" style="text;strokeColor=none;fillColor=none;align=left;verticalAlign=top;spacingLeft=4;spacingRight=4;overflow=hidden;rotatable=0;points=[[0,0.5],[1,0.5]];portConstraint=eastwest;" vertex="1" parent="6">
                    <mxGeometry y="26" width="230" height="26" as="geometry"/>
                </mxCell>
                <mxCell id="8" value="" style="line;strokeWidth=1;fillColor=none;align=left;verticalAlign=middle;spacingTop=-1;spacingLeft=3;spacingRight=3;rotatable=0;labelPosition=right;points=[];portConstraint=eastwest;" vertex="1" parent="6">
                    <mxGeometry y="52" width="230" height="8" as="geometry"/>
                </mxCell>
                <mxCell id="9" value="+ getLoadCapacity():int&#10;+ setLoadCapacity(loadCapacity:int)&#10;+ fuel()&#10;+wipWindshild()&#10;+wipHeadloghts()&#10;+wipMirror()" style="text;strokeColor=none;fillColor=none;align=left;verticalAlign=top;spacingLeft=4;spacingRight=4;overflow=hidden;rotatable=0;points=[[0,0.5],[1,0.5]];portConstraint=eastwest;" vertex="1" parent="6">
                    <mxGeometry y="60" width="230" height="110" as="geometry"/>
                </mxCell>
                <mxCell id="10" value="Extends" style="endArrow=block;endSize=16;endFill=0;html=1;exitX=0.5;exitY=0;exitDx=0;exitDy=0;entryX=0.451;entryY=1.014;entryDx=0;entryDy=0;entryPerimeter=0;" edge="1" parent="1" source="6" target="5">
                    <mxGeometry width="160" relative="1" as="geometry">
                        <mxPoint x="230" y="490" as="sourcePoint"/>
                        <mxPoint x="490" y="770" as="targetPoint"/>
                    </mxGeometry>
                </mxCell>
                <mxCell id="14" value="&lt;p style=&quot;margin: 0px ; margin-top: 4px ; text-align: center&quot;&gt;&lt;i&gt;&amp;lt;&amp;lt;Interface&amp;gt;&amp;gt;&lt;/i&gt;&lt;br&gt;&lt;/p&gt;&lt;p style=&quot;margin: 0px ; margin-top: 4px ; text-align: center&quot;&gt;&lt;b&gt;&lt;i&gt;Refueling&lt;/i&gt;&lt;/b&gt;&lt;/p&gt;&lt;p style=&quot;margin: 0px ; margin-left: 4px&quot;&gt;&lt;/p&gt;&lt;p style=&quot;margin: 0px ; margin-left: 4px&quot;&gt;+ fuel()&lt;/p&gt;" style="verticalAlign=top;align=left;overflow=fill;fontSize=12;fontFamily=Helvetica;html=1;" vertex="1" parent="1">
                    <mxGeometry x="420" y="710" width="190" height="60" as="geometry"/>
                </mxCell>
                <mxCell id="15" value="" style="endArrow=block;dashed=1;endFill=0;endSize=12;html=1;exitX=1.019;exitY=0.855;exitDx=0;exitDy=0;exitPerimeter=0;entryX=-0.006;entryY=0.865;entryDx=0;entryDy=0;entryPerimeter=0;" edge="1" parent="1" source="7" target="14">
                    <mxGeometry width="160" relative="1" as="geometry">
                        <mxPoint x="230" y="660" as="sourcePoint"/>
                        <mxPoint x="390" y="820" as="targetPoint"/>
                    </mxGeometry>
                </mxCell>
                <mxCell id="16" value="&lt;p style=&quot;margin: 0px ; margin-top: 4px ; text-align: center&quot;&gt;&lt;i&gt;&amp;lt;&amp;lt;Interface&amp;gt;&amp;gt;&lt;/i&gt;&lt;br&gt;&lt;b&gt;Wiping&lt;/b&gt;&lt;/p&gt;&lt;hr size=&quot;1&quot;&gt;&lt;p style=&quot;margin: 0px ; margin-left: 4px&quot;&gt;+ wipWipingshield()&lt;br&gt;&lt;/p&gt;&lt;p style=&quot;margin: 0px ; margin-left: 4px&quot;&gt;+wipHeadlights()&lt;/p&gt;&lt;p style=&quot;margin: 0px ; margin-left: 4px&quot;&gt;+ wipMirror()&lt;/p&gt;" style="verticalAlign=top;align=left;overflow=fill;fontSize=12;fontFamily=Helvetica;html=1;" vertex="1" parent="1">
                    <mxGeometry x="460" y="840" width="190" height="100" as="geometry"/>
                </mxCell>
                <mxCell id="17" value="" style="endArrow=block;dashed=1;endFill=0;endSize=12;html=1;exitX=1.011;exitY=0.83;exitDx=0;exitDy=0;exitPerimeter=0;entryX=0;entryY=0.25;entryDx=0;entryDy=0;" edge="1" parent="1" source="9" target="16">
                    <mxGeometry width="160" relative="1" as="geometry">
                        <mxPoint x="330" y="860" as="sourcePoint"/>
                        <mxPoint x="490" y="860" as="targetPoint"/>
                    </mxGeometry>
                </mxCell>
                <mxCell id="18" value="FutureCar" style="swimlane;fontStyle=1;align=center;verticalAlign=top;childLayout=stackLayout;horizontal=1;startSize=26;horizontalStack=0;resizeParent=1;resizeParentMax=0;resizeLast=0;collapsible=1;marginBottom=0;" vertex="1" parent="1">
                    <mxGeometry x="420" y="590" width="200" height="90" as="geometry"/>
                </mxCell>
                <mxCell id="20" value="" style="line;strokeWidth=1;fillColor=none;align=left;verticalAlign=middle;spacingTop=-1;spacingLeft=3;spacingRight=3;rotatable=0;labelPosition=right;points=[];portConstraint=eastwest;" vertex="1" parent="18">
                    <mxGeometry y="26" width="200" height="8" as="geometry"/>
                </mxCell>
                <mxCell id="21" value="+ FutureCar( setNumberWheels)&#10;- fly()&#10;+ movement():fly&#10;" style="text;strokeColor=none;fillColor=none;align=left;verticalAlign=top;spacingLeft=4;spacingRight=4;overflow=hidden;rotatable=0;points=[[0,0.5],[1,0.5]];portConstraint=eastwest;" vertex="1" parent="18">
                    <mxGeometry y="34" width="200" height="56" as="geometry"/>
                </mxCell>
                <mxCell id="22" value="Extends" style="endArrow=block;endSize=16;endFill=0;html=1;entryX=1.008;entryY=0.872;entryDx=0;entryDy=0;entryPerimeter=0;exitX=0;exitY=0.5;exitDx=0;exitDy=0;" edge="1" parent="1" source="21" target="3">
                    <mxGeometry width="160" relative="1" as="geometry">
                        <mxPoint x="520" y="660" as="sourcePoint"/>
                        <mxPoint x="680" y="660" as="targetPoint"/>
                    </mxGeometry>
                </mxCell>
                <mxCell id="27" value="&lt;p style=&quot;margin: 0px ; margin-top: 4px ; text-align: center&quot;&gt;&lt;i&gt;&quot;enumeration&quot;&lt;/i&gt;&lt;/p&gt;&lt;p style=&quot;margin: 0px ; margin-top: 4px ; text-align: center&quot;&gt;&lt;b&gt;TypeCar&lt;/b&gt;&lt;/p&gt;&lt;hr size=&quot;1&quot;&gt;&lt;div style=&quot;color: rgb(212 , 212 , 212) ; background-color: rgb(30 , 30 , 30) ; font-family: &amp;#34;consolas&amp;#34; , &amp;#34;courier new&amp;#34; , monospace ; font-size: 14px ; line-height: 19px&quot;&gt;&lt;div&gt;&lt;span style=&quot;color: #4fc1ff&quot;&gt;SEDAN&lt;/span&gt;&lt;/div&gt;&lt;div&gt;&lt;span style=&quot;color: #4fc1ff&quot;&gt;PIKCUP&lt;/span&gt;&lt;/div&gt;&lt;/div&gt;" style="verticalAlign=top;align=left;overflow=fill;fontSize=12;fontFamily=Helvetica;html=1;" vertex="1" parent="1">
                    <mxGeometry x="470" y="10" width="120" height="100" as="geometry"/>
                </mxCell>
                <mxCell id="28" value="&lt;p style=&quot;margin: 0px ; margin-top: 4px ; text-align: center&quot;&gt;&lt;i&gt;&quot;enumeration&quot;&lt;/i&gt;&lt;/p&gt;&lt;p style=&quot;margin: 0px ; margin-top: 4px ; text-align: center&quot;&gt;&lt;b&gt;TypeFuel&lt;/b&gt;&lt;/p&gt;&lt;hr size=&quot;1&quot;&gt;&lt;div style=&quot;color: rgb(212 , 212 , 212) ; background-color: rgb(30 , 30 , 30) ; font-family: &amp;#34;consolas&amp;#34; , &amp;#34;courier new&amp;#34; , monospace ; font-size: 14px ; line-height: 19px&quot;&gt;&lt;div&gt;&lt;span style=&quot;color: #4fc1ff&quot;&gt;Gasoline&lt;/span&gt;&lt;/div&gt;&lt;div&gt;&lt;span style=&quot;color: #4fc1ff&quot;&gt;Diesel&lt;/span&gt;&lt;/div&gt;&lt;/div&gt;" style="verticalAlign=top;align=left;overflow=fill;fontSize=12;fontFamily=Helvetica;html=1;" vertex="1" parent="1">
                    <mxGeometry x="470" y="120" width="120" height="100" as="geometry"/>
                </mxCell>
                <mxCell id="29" value="&lt;p style=&quot;margin: 0px ; margin-top: 4px ; text-align: center&quot;&gt;&lt;i&gt;&quot;enumeration&quot;&lt;/i&gt;&lt;/p&gt;&lt;p style=&quot;margin: 0px ; margin-top: 4px ; text-align: center&quot;&gt;&lt;b&gt;TypeGearBox&lt;/b&gt;&lt;/p&gt;&lt;hr size=&quot;1&quot;&gt;&lt;div style=&quot;background-color: rgb(30 , 30 , 30) ; font-family: &amp;#34;consolas&amp;#34; , &amp;#34;courier new&amp;#34; , monospace ; font-size: 14px ; line-height: 19px&quot;&gt;&lt;div style=&quot;color: rgb(212 , 212 , 212)&quot;&gt;&lt;span style=&quot;color: #4fc1ff&quot;&gt;MT&lt;/span&gt;&lt;/div&gt;&lt;div&gt;&lt;font color=&quot;#4fc1ff&quot;&gt;AT&lt;/font&gt;&lt;/div&gt;&lt;/div&gt;" style="verticalAlign=top;align=left;overflow=fill;fontSize=12;fontFamily=Helvetica;html=1;" vertex="1" parent="1">
                    <mxGeometry x="470" y="260" width="120" height="100" as="geometry"/>
                </mxCell>
                <mxCell id="30" value="Relation" style="endArrow=open;html=1;endSize=12;startArrow=diamondThin;startSize=14;startFill=0;edgeStyle=orthogonalEdgeStyle;exitX=1.018;exitY=0.666;exitDx=0;exitDy=0;exitPerimeter=0;entryX=0;entryY=0.5;entryDx=0;entryDy=0;" edge="1" parent="1" source="3" target="29">
                    <mxGeometry relative="1" as="geometry">
                        <mxPoint x="370" y="410" as="sourcePoint"/>
                        <mxPoint x="530" y="410" as="targetPoint"/>
                    </mxGeometry>
                </mxCell>
                <mxCell id="31" value="0..n" style="edgeLabel;resizable=0;html=1;align=left;verticalAlign=top;" connectable="0" vertex="1" parent="30">
                    <mxGeometry x="-1" relative="1" as="geometry"/>
                </mxCell>
                <mxCell id="32" value="1" style="edgeLabel;resizable=0;html=1;align=right;verticalAlign=top;" connectable="0" vertex="1" parent="30">
                    <mxGeometry x="1" relative="1" as="geometry"/>
                </mxCell>
                <mxCell id="33" value="Relation" style="endArrow=open;html=1;endSize=12;startArrow=diamondThin;startSize=14;startFill=0;edgeStyle=orthogonalEdgeStyle;exitX=1.03;exitY=0.658;exitDx=0;exitDy=0;exitPerimeter=0;entryX=0;entryY=0.25;entryDx=0;entryDy=0;" edge="1" parent="1" source="3" target="28">
                    <mxGeometry relative="1" as="geometry">
                        <mxPoint x="370" y="140" as="sourcePoint"/>
                        <mxPoint x="530" y="140" as="targetPoint"/>
                    </mxGeometry>
                </mxCell>
                <mxCell id="34" value="0..n" style="edgeLabel;resizable=0;html=1;align=left;verticalAlign=top;" connectable="0" vertex="1" parent="33">
                    <mxGeometry x="-1" relative="1" as="geometry"/>
                </mxCell>
                <mxCell id="35" value="1" style="edgeLabel;resizable=0;html=1;align=right;verticalAlign=top;" connectable="0" vertex="1" parent="33">
                    <mxGeometry x="1" relative="1" as="geometry"/>
                </mxCell>
                <mxCell id="36" value="Relation" style="endArrow=open;html=1;endSize=12;startArrow=diamondThin;startSize=14;startFill=0;edgeStyle=orthogonalEdgeStyle;exitX=1;exitY=0.5;exitDx=0;exitDy=0;entryX=0;entryY=0.5;entryDx=0;entryDy=0;" edge="1" parent="1" source="3" target="27">
                    <mxGeometry relative="1" as="geometry">
                        <mxPoint x="370" y="140" as="sourcePoint"/>
                        <mxPoint x="530" y="140" as="targetPoint"/>
                    </mxGeometry>
                </mxCell>
                <mxCell id="37" value="0..n" style="edgeLabel;resizable=0;html=1;align=left;verticalAlign=top;" connectable="0" vertex="1" parent="36">
                    <mxGeometry x="-1" relative="1" as="geometry"/>
                </mxCell>
                <mxCell id="38" value="1" style="edgeLabel;resizable=0;html=1;align=right;verticalAlign=top;" connectable="0" vertex="1" parent="36">
                    <mxGeometry x="1" relative="1" as="geometry"/>
                </mxCell>
            </root>
        </mxGraphModel>
    </diagram>
</mxfile>